<?xml version="1.0" encoding="utf-8"?>
<svg xmlns="http://www.w3.org/2000/svg" viewBox="0 0 130 19.62">
  <g id="Group_4134" data-name="Group 4134">
    <path id="Path_10708" data-name="Path 10708" d="M119.77,1c.32-.16,.62-.35,.9-.56h9.33c-.22,1.11-.5,2.22-.83,3.31-1,1-2.13,1.93-3.23,2.86-.85,3.25-1.78,6.43-2.6,9.71-1.38,1-2.66,2-4,3-1.4-.08-2.72,0-4.22,0,.08-.74,.4-1.55,.49-2.41-.43,.2-.85,.44-1.24,.72-.39,.25-.78,.48-1.2,.71-1.6,.94-3.46,1.32-5.3,1.06-1.28-.19-2.43-.88-3.2-1.92-1.77,1.37-5.25,2.63-8.13,1.73-1.84-.58-2.83-2.28-2.41-4.7-.69,.11-1.38,.17-2.07,.19-.23,.55-.43,1.12-.6,1.69-1,.71-2,1.54-3,2.34-.3,.29-.64,.54-1,.75-.74,.07-1.48,.07-2.22,0-.74,.06-1.48,.06-2.22,0,1.2-4.48,2.42-9.48,3.75-14.14,.11-.66,.29-1.3,.53-1.92,.25-.3,.54-.57,.86-.79,.92-.76,1.89-1.4,2.75-2.19h4c1.34,0,2.74-.13,3.91,0,.43,.09,.83,.25,1.2,.49,.25,.36,.51,.73,.75,1.09,.89-.57,1.82-1.07,2.79-1.5,1.17-.35,2.38-.5,3.6-.42,1.56,.06,3,.67,3.54,1.92,1.24-1.11,2.79-1.81,4.44-2,1.6-.2,3.23,.13,4.63,.94m-.53,.42c-.97-.59-2.1-.87-3.24-.82-.65,.04-1.3,.17-1.92,.38-1.2,.24-2.26,.91-3,1.88-.59,.98-.8,2.14-.6,3.27,.37,.84,.88,1.6,1.52,2.26,.57,.76,1.26,1.42,1.73,2.07,.19,.24,.34,.5,.45,.79,.31,.73-.03,1.57-.75,1.88,0,0,0,0,0,0-.19,.08-.39,.12-.59,.11-.11,0-.14-.1-.19-.11s-.14,0-.23,0c-.9-.42-.53-1.31-.37-2.26h-3.39c-.33,.85-.52,1.76-.56,2.67,.1,1.84,1.87,2.63,3.72,2.64,1.34,.06,2.66-.29,3.8-1,.56-.3,1.07-.7,1.5-1.17,.78-1.03,1.16-2.32,1.06-3.61-.24-1.19-.89-2.25-1.84-3-.69-.58-1.32-1.24-1.88-1.95-.28-.47-.36-1.02-.22-1.55,.28-.42,.78-.64,1.28-.56,1.16,.19,.79,1.76,.6,2.56,1,.08,2.23,0,3.16,0,.49-1.3,1.11-3.51,0-4.52m-16.86,.3c-.35,.22-.66,.48-.93,.79-.23,.2-.43,.43-.6,.68-.15,.4-.26,.82-.34,1.24-.72,2.5-1.42,5-2.07,7.41-.14,.42-.25,.85-.34,1.28-.22,1.36,.66,2.65,2,2.94,2.39,.58,5.16-.05,6.44-1.44,.38-.41,.7-.88,.93-1.39,.27-.65,.43-1.53,.68-2.37,.48-1.57,1-3.21,1.36-4.78,.25-.81,.45-1.64,.6-2.48,.11-.63,0-1.28-.3-1.84-.5-.47-1.11-.79-1.77-.94-.86-.17-1.73-.21-2.6-.12-1.09,.12-2.14,.46-3.09,1m18.74-.6c-.25,.77-.44,1.57-.57,2.37h2.15c-1,4.07-2.17,7.94-3.16,12,1.07,.06,2.13,.06,3.2,0,1.15-4,2.15-7.91,3.27-11.93,.8,.06,1.61,.06,2.41,0,.2-.81,.5-1.73,.64-2.48-3,0-5.41-.05-7.94,0m-23.27,9c.47-.56,.81-1.21,1-1.92,.44-1.1,.77-2.23,1-3.39,.16-.54,.27-1.1,.31-1.67,.09-.86-.45-1.66-1.28-1.91-.61-.04-1.23-.04-1.84,0h-5.57c-1.3,4.82-2.64,9.59-3.84,14.41,1.09,.06,2.18,.06,3.27,0,.43-1.47,.82-3,1.28-4.4,2.35,.15,4.35,.17,5.68-1.05" fill="#02033B" fill-rule="evenodd"/>
    <path id="Path_10709" data-name="Path 10709" d="M53.43,.56h.15v.22h-.15c-.05-.08-.05-.18,0-.26" fill="#02033B" fill-rule="evenodd"/>
    <path id="Path_10710" data-name="Path 10710" d="M101.89,13.09c0-.13-.06-.25-.15-.34,.09-.94,.29-1.86,.6-2.75,.4-1.43,.78-2.8,1.2-4.36,.11-.72,.4-1.41,.83-2,.59-.45,2-.5,2.11,.42-.03,.36-.1,.71-.23,1.05-.4,1.71-.84,3.39-1.31,5.08-.19,.68-.3,1.38-.53,2-.09,.24-.2,.47-.34,.68-.61,.54-1.49,.61-2.18,.19" fill="#02033B" fill-rule="evenodd"/>
    <path id="Path_10711" data-name="Path 10711" d="M57.57,12.86c-.55,.43-1.29,.52-1.92,.22-.48-.59,.12-1.91,.34-2.67,.54-1.87,1-3.58,1.47-5.42,.07-.36,.17-.71,.3-1.05,.32-.58,2.07-.91,2.22,0-.02,.41-.09,.81-.22,1.2-.23,1.09-.65,2.31-.91,3.35-.32,1.48-.74,2.95-1.27,4.37" fill="#02033B" fill-rule="evenodd"/>
    <path id="Path_10712" data-name="Path 10712" d="M92.94,8.42c.42-1.6,.86-3.19,1.31-4.78,.75-.19,2.06-.25,2.19,.49,.01,.27-.01,.53-.08,.79-.22,1.12-.58,2.21-1.09,3.24-.68,.47-1.56,.57-2.33,.26" fill="#02033B" fill-rule="evenodd"/>
    <path id="Path_10713" data-name="Path 10713" d="M67.5,7.1c.3-1.19,.66-2.35,1.09-3.5,.92,.14,2.29-.43,2.07,1.06-.1,.67-.53,1.51-.68,2.1-.4,.52-1.76,.39-2.48,.34" fill="#02033B" fill-rule="evenodd"/>
    <path id="Path_10714" data-name="Path 10714" d="M87.26,.44h-5c-.3,.27-.64,.54-1,.79-.29,.28-.63,.51-1,.68,.11-.49,.2-.98,.26-1.47h-4.93c-.27,.28-.57,.52-.9,.72-.33-.27-.7-.48-1.09-.64-.66-.08-1.34-.08-2,0h-6.62c-.34,.3-.69,.57-1.06,.83-1.53-1.56-5.27-1.6-7.48-.75-.17,0,0-.23-.26-.15h-4.86c-.76,.55-1.32,1.18-2.18,1.65-.07-.4,0-1.19-.11-1.66h-5c-.3,.28-.63,.51-1,.68,0-.29,.15-.42,.18-.68h-4.42c-.55,.46-1.15,.86-1.79,1.2-.02-.4-.05-.8-.11-1.2h-2.2c-.72-.08-1.46-.08-2.18,0-.51,.15-.84,.88-1.39,.94-.06-.32-.1-.65-.12-.98-4.34,.02-10.55-.17-15.2,.04-.45-.05-.9-.08-1.35-.07-.48,.1-1.06,1-1.55,1-.08-.33-.12-.7-.22-1h-4.68c-1.06,.74-2,1.63-3,2.4-.38,.32-.8,.48-1,.83-.13,.46-.22,.93-.28,1.4-.3,1.08-.53,2-.79,3-.93,3.8-2.13,7.8-2.93,11.45H4.18c.69-.58,1.41-1.11,2.18-1.59,.14,.49,.12,1,.26,1.59h3c.33,.03,.67,.03,1,0,.33-.08,.46-.5,.75-.57,.21,.12,.28,.38,.42,.57,2.19-.15,4.74,.05,6.43,0,.57,.05,1.13,.05,1.7,0,.31-.16,.6-.37,.86-.6,.26-.25,.56-.44,.9-.57,0,.45-.14,.85-.11,1.17h3.35c.19,0,.37,0,.56,0,.48-.06,1-.61,1.39-.87,.35-.34,.78-.6,1.25-.75-.09,.55-.26,1-.34,1.58h1.95c.71,.08,1.44,.08,2.15,0,.32-.07,.73-.53,1.05-.8,1.07-.81,2.27-1.61,3.18-2.37,1.37-3,2.86-6.08,4.26-9,.2-.42,.28-.94,.67-1.24,.25,1.71,.47,3.42,.64,5,.12,.55,.18,1.1,.19,1.66-.11,.56-.26,1.11-.45,1.65l-1.36,5.05h4.59c1.05-.72,1.94-1.58,3-2.26,.68,1.43,2.1,2.36,3.69,2.41,1.54,.11,3.08-.22,4.44-.94,.56-.35,1.16-.65,1.77-.9-.05,.6-.2,1.1-.26,1.69h4.29c.51-.39,1.05-.74,1.61-1.05,0,.44-.17,.62-.18,1,2.08,.06,4.49,0,6.77,0,.79,.08,1.58,.08,2.37,0,.37-.17,.7-.4,1-.68,.36-.25,.61-.6,1-.67,.21,.43,.38,.88,.49,1.35h5c1.34-1.05,2.61-2.18,4-3.2-.67-2.85-1.31-5.72-1.92-8.62,1.8-2.07,3.58-4.44,5.28-6.6,.08-.1,.31-.28,.22-.45M10.83,15.53c-.4-2.73-.58-5.45-1-8.13-.83,2.6-1.49,5.52-2.38,8.13-.9,0-1.91,.05-2.75,0,1.15-4.9,2.46-9.59,3.65-14.41,.02-.06,.06-.1,.12-.12h3.72c.3,2.31,.52,4.7,.87,7,.77-2.27,1.33-4.74,2.11-7,.94-.04,1.89-.01,2.83,.08-1.32,4.92-2.58,9.63-4,14.45h-3.17Zm24.69,0c-1.04,.06-2.08,.06-3.12,0,.18-2.77,.49-5.36,.71-8.16-.4,.63-.74,1.3-1,2-1,2-1.87,4.15-2.82,6.21h-3.2c.08-4,.47-8.1,.64-12h-4.29c-.45,1-.7,2.24-1.09,3.31,1.12,.06,2.62,0,3.91,0-.11,.77-.46,1.61-.64,2.45h-3.87c-.42,1.16-.69,2.48-1.05,3.69,1.4,0,2.91-.05,4.25,0-.26,.83-.55,1.63-.83,2.44h-7.45c1.19-4.9,2.49-9.69,3.77-14.49,3.5-.06,7.3-.05,11,0-.16,2.36-.37,4.78-.6,7.07,.28-.18,.36-.54,.49-.82,1-2,1.93-4.19,2.9-6.25h3.2c-.12,2.45-.45,4.81-.57,7.19,1.27-2.17,2.34-4.73,3.54-7.12,.86,0,1.89-.05,2.93,0-2.26,4.83-4.53,9.66-6.81,14.48m14.75-6.77c-.27,.34-.51,.71-.72,1.09-.16,.5-.28,1-.38,1.51-.35,1.33-.8,2.77-1.24,4.25h-3.2c.3-1.91,1-3.83,1.43-5.72,.02-.47-.03-.94-.16-1.39-.32-2.5-.68-4.91-1-7.42,1.22-.06,2,0,3.38,0,.14,1.71,.29,3.5,.38,5.2,1.13-1.54,2.15-3.51,3.27-5.2,.95,0,2.22-.05,3.28,0-1.57,2.55-3.39,5-5.05,7.64m10.8,4.4c-.42,.86-1.07,1.59-1.87,2.11-1.78,1-3.88,1.24-5.84,.68-.46-.17-1.46-.69-1.61-1.32-.32-1.28,.32-2.69,.59-3.87,.44-1.9,1-4,1.55-5.94,.15-.74,.44-1.45,.87-2.08,.94-1.31,2.44-2.12,4.06-2.18,2.27-.21,4.49,0,4.85,1.84,.05,.33,.05,.67,0,1-.14,.85-.34,1.7-.6,2.52-.42,1.57-.86,3.27-1.31,4.89-.25,.89-.43,1.79-.68,2.41m10.12,2.41c-1.19,0-2.12,.06-3.46,0,.15-1.17,.62-2.73,.94-4.11,.1-.45,.37-1,.26-1.35-.22-.64-1.41-.34-2.14-.41-.68,1.87-1.14,4-1.74,5.91-1.12-.05-2.29,0-3.31,0,.52-2.47,1.26-4.86,1.88-7.27s1.19-4.84,1.92-7.19h5.35c1,0,2.52-.09,3.12,.34,1.11,.81,.41,2.39,.07,3.69-.14,.62-.32,1.24-.53,1.84-.33,.82-1.23,1.09-2,1.5,.57,.3,1.22,.4,1.16,1.32-.08,.51-.21,1.02-.37,1.51-.36,1.31-.92,3.12-1.21,4.32m12.4-11.33c-.82,1-1.63,2.1-2.44,3.16,.56,2.74,1.16,5.28,1.69,8-1.52,.08-2.62,.07-3.8,0-.42-2.13-.82-4.27-1.24-6.4-.75,2-1.29,4.26-1.92,6.4h-3.58c.25-1.19,.56-2.36,.94-3.52,.37-1.18,.63-2.39,1-3.58s.74-2.4,1-3.61,.7-2.51,1.06-3.65c1.14-.09,2.28-.09,3.42,0-.4,1.64-.82,3.14-1.2,4.7,.43-.33,.8-.72,1.12-1.16,1.06-1.15,2.12-2.43,3.2-3.58,1.05-.06,2.11-.06,3.16,0-.72,1.15-1.59,2.18-2.41,3.24" fill="#02033B" fill-rule="evenodd"/>
  </g>
</svg>